<?xml version="1.0" standalone="no"?>
<!DOCTYPE svg PUBLIC "-//W3C//DTD SVG 20010904//EN"
 "http://www.w3.org/TR/2001/REC-SVG-20010904/DTD/svg10.dtd">
<svg version="1.0" xmlns="http://www.w3.org/2000/svg"
 width="958.000000pt" height="1200.000000pt" viewBox="0 0 958.000000 1200.000000"
 preserveAspectRatio="xMidYMid meet">
<metadata>
Created by potrace 1.16, written by Peter Selinger 2001-2019
</metadata>
<g transform="translate(0.000000,1200.000000) scale(0.100000,-0.100000)"
fill="#000000" stroke="none">
<path d="M5107 11917 c-9 -7 -19 -45 -26 -92 -29 -199 -148 -334 -357 -404
-49 -16 -124 -34 -167 -40 -92 -13 -406 -14 -425 -2 -10 6 -1 20 34 55 90 90
207 158 357 207 104 34 117 42 117 75 0 33 -40 38 -224 31 -316 -12 -705 -89
-928 -182 -168 -71 -319 -177 -406 -286 l-46 -57 -31 72 c-61 141 -210 342
-363 489 -105 100 -137 89 -103 -37 34 -124 45 -253 32 -374 -7 -59 -17 -128
-22 -153 l-10 -47 -62 0 c-133 -1 -247 -75 -282 -183 -38 -118 -195 -457 -289
-628 -46 -83 -47 -117 -9 -327 4 -26 1 -33 -27 -51 -55 -35 -159 -144 -182
-192 -36 -72 -31 -129 19 -199 73 -105 80 -156 27 -215 -79 -87 -99 -169 -113
-462 -10 -205 -32 -307 -88 -418 -65 -130 -101 -147 -302 -147 -143 1 -182 7
-298 51 -87 33 -113 33 -113 -2 0 -48 182 -252 290 -326 124 -84 260 -134 442
-163 65 -10 122 -22 128 -25 20 -12 50 -84 50 -119 0 -45 -50 -192 -91 -264
-53 -95 -124 -184 -219 -275 -49 -48 -90 -90 -90 -95 0 -4 6 -16 13 -26 13
-17 21 -18 112 -7 181 21 259 43 431 117 8 4 9 -10 2 -48 -17 -100 -11 -246
14 -333 18 -62 23 -105 23 -190 l0 -110 25 0 c23 0 30 11 71 115 26 63 56 149
68 190 11 41 27 98 34 125 l14 50 41 -130 c26 -82 49 -183 62 -275 26 -173 54
-310 81 -387 10 -31 17 -58 15 -61 -3 -2 -42 -6 -88 -9 -131 -9 -121 34 -113
-458 4 -231 10 -555 15 -719 7 -287 8 -300 28 -317 18 -14 57 -18 252 -24 262
-8 272 -6 283 62 4 21 7 217 7 436 0 218 2 397 5 397 2 0 37 -31 78 -70 132
-125 250 -212 430 -315 37 -22 67 -42 67 -46 0 -4 -15 -17 -34 -29 -23 -14
-40 -35 -50 -63 -16 -42 -36 -232 -36 -339 l0 -58 -87 -57 c-475 -307 -951
-565 -1399 -756 -179 -77 -181 -79 -265 -160 -127 -123 -307 -399 -407 -622
-193 -429 -409 -1027 -638 -1760 -84 -268 -299 -1017 -309 -1072 -9 -59 20
-88 101 -100 153 -21 9168 0 9280 22 53 11 58 78 24 329 -130 937 -335 1689
-621 2271 -134 274 -167 322 -309 454 -285 263 -559 458 -954 679 -250 140
-621 312 -917 426 l-96 37 -169 172 c-93 95 -209 213 -257 263 l-88 91 1 304
c0 166 1 304 3 305 1 1 51 -9 111 -21 153 -33 184 -13 108 69 -22 23 -56 73
-78 111 -38 69 -38 71 -46 215 -3 79 -5 146 -4 148 2 1 48 -9 102 -23 263 -69
487 -30 632 111 75 73 70 87 -33 95 -44 4 -98 11 -120 18 -85 24 -195 103
-266 193 l-38 48 39 67 c45 77 93 202 116 306 23 103 23 103 71 62 62 -53 132
-174 167 -288 8 -26 37 -33 51 -13 34 46 45 307 20 461 -8 50 -15 93 -15 96 0
3 21 4 48 2 108 -11 266 47 356 130 41 38 46 48 37 65 -7 14 -25 21 -66 25
-63 6 -145 41 -192 81 -31 26 -33 32 -33 89 0 34 -7 98 -15 141 -8 44 -14 81
-12 82 8 8 152 -97 223 -164 43 -40 85 -71 93 -70 30 6 45 59 49 174 3 90 0
126 -18 198 -12 48 -21 88 -19 89 2 1 30 16 63 32 79 41 179 135 254 241 92
129 78 162 -45 103 -57 -27 -83 -34 -155 -37 -84 -4 -91 -3 -162 31 -56 27
-95 55 -154 114 -99 98 -111 117 -80 136 13 7 52 31 88 52 205 122 375 296
467 480 92 183 156 496 109 535 -15 12 -22 6 -135 -99 -126 -117 -277 -185
-395 -179 l-56 3 -63 145 c-111 256 -250 481 -380 617 l-79 82 49 58 c145 169
238 389 292 686 20 110 -6 114 -133 18 -204 -156 -362 -230 -511 -238 -105 -6
-165 12 -261 76 -51 34 -178 151 -171 157 1 2 23 -2 47 -8 25 -6 104 -12 175
-12 109 -1 135 2 158 17 15 9 27 24 27 31 0 55 -397 291 -540 321 -94 20 -338
28 -460 16 -57 -5 -106 -9 -107 -7 -2 1 3 25 11 52 19 64 36 181 36 241 0 109
-60 313 -95 327 -7 2 -20 -1 -28 -7z m-827 -282 c0 -2 -24 -20 -52 -39 -56
-36 -84 -61 -162 -145 -37 -40 -578 -471 -632 -504 -8 -5 -7 14 4 56 12 50 28
78 80 142 149 182 163 328 23 232 -28 -20 -72 -43 -98 -53 -138 -50 -239 -102
-322 -165 -29 -22 -55 -38 -58 -36 -7 8 22 59 66 114 140 178 403 276 1021
382 125 22 130 22 130 16z m837 -122 c-3 -49 -15 -118 -26 -155 -18 -57 -25
-67 -49 -72 -15 -3 -101 -17 -192 -31 -248 -39 -255 -41 -395 -104 -71 -33
-131 -58 -132 -57 -1 1 10 41 24 89 l27 87 61 0 c74 0 231 24 303 45 141 42
268 129 336 228 22 31 42 57 44 57 3 0 2 -39 -1 -87z m-2248 -133 c36 -49 81
-183 81 -239 0 -27 -9 -51 -31 -82 -41 -57 -255 -269 -271 -269 -7 0 -30 45
-50 99 l-37 99 29 75 c54 137 81 262 87 396 l6 125 77 -81 c43 -44 92 -99 109
-123z m1301 -101 c56 -7 97 -15 93 -19 -4 -5 -107 -59 -228 -120 -395 -203
-504 -270 -606 -376 -127 -133 -212 -293 -248 -471 -9 -45 -20 -85 -23 -88 -3
-4 -9 31 -13 78 -9 105 8 218 40 273 30 52 227 240 400 385 254 211 436 349
460 349 13 0 70 -5 125 -11z m1577 -70 c103 -46 259 -132 298 -165 l30 -25
-65 6 c-36 2 -103 6 -150 7 -82 3 -85 2 -88 -20 -7 -48 164 -229 284 -302 128
-77 285 -101 427 -64 81 21 200 82 281 144 37 29 70 50 72 47 8 -8 -77 -223
-136 -342 -63 -129 -150 -240 -179 -232 -9 3 -46 16 -82 30 -56 22 -70 24 -84
13 -28 -20 -5 -48 92 -111 181 -118 331 -315 494 -648 34 -70 60 -129 58 -132
-11 -11 -167 128 -339 303 -134 137 -209 204 -271 245 -119 79 -249 138 -307
140 -38 2 -58 10 -102 44 -30 23 -68 46 -83 52 -19 7 -192 11 -508 11 -275 0
-479 4 -479 9 0 11 170 66 266 85 144 30 293 39 578 34 155 -2 289 -2 299 0
29 6 19 39 -22 74 -88 75 -285 177 -342 178 -49 0 -249 65 -249 81 0 5 9 9 19
9 43 0 254 60 301 86 60 33 77 57 62 89 -12 26 -33 30 -232 45 -186 13 -808
41 -961 43 l-127 2 -108 -55 c-154 -78 -390 -237 -674 -454 -8 -6 -4 3 8 21
42 60 350 320 592 500 173 128 233 166 295 186 60 19 360 71 500 86 55 6 116
13 135 15 19 2 121 3 225 2 l190 -1 82 -36z m-3230 -111 c-2 -7 -17 -53 -33
-103 -43 -137 -160 -362 -284 -548 -61 -92 -116 -182 -121 -200 -33 -116 17
-308 147 -564 34 -68 60 -123 58 -123 -18 0 -62 43 -100 96 -83 117 -165 326
-213 550 l-22 101 104 206 c57 113 130 271 162 351 31 81 66 158 77 171 35 45
104 73 182 74 35 1 47 -2 43 -11z m109 -1147 c86 -72 190 -208 254 -334 86
-168 81 -178 -43 -97 -133 88 -260 277 -273 408 -5 40 -3 62 3 62 6 0 32 -18
59 -39z m3777 -99 c49 -35 103 -87 148 -141 214 -260 289 -330 479 -442 l75
-44 105 0 c90 1 114 5 167 27 69 29 133 70 211 136 l52 45 -36 -104 c-67 -192
-138 -305 -278 -445 -91 -91 -299 -244 -331 -244 -5 0 -31 25 -57 54 l-48 54
103 32 c151 47 237 92 322 172 80 75 120 130 111 153 -4 12 -25 15 -90 15
-167 0 -323 33 -446 95 -146 74 -279 210 -356 365 -44 90 -111 178 -218 289
l-91 94 50 -28 c28 -15 85 -53 128 -83z m-4438 3 c15 -36 26 -67 24 -68 -2 -1
-13 -7 -24 -13 -38 -21 -45 -52 -45 -211 l0 -153 -45 0 -45 0 0 43 c0 29 -11
66 -35 114 -42 85 -44 122 -9 191 24 48 124 162 143 162 4 0 21 -29 36 -65z
m4015 -79 c307 -229 612 -586 681 -795 32 -97 93 -215 158 -306 31 -44 70
-102 86 -129 39 -69 172 -214 247 -271 82 -63 153 -95 238 -108 38 -6 67 -14
64 -18 -10 -17 -173 -99 -265 -133 -52 -19 -147 -45 -210 -57 -183 -36 -189
-37 -189 -60 0 -35 37 -42 161 -30 107 11 223 31 260 46 14 5 22 -8 43 -72 14
-43 29 -107 33 -143 l6 -65 -45 41 c-56 49 -173 107 -270 134 -91 25 -115 25
-128 -1 -9 -17 -6 -28 19 -68 39 -59 57 -113 66 -187 l7 -59 -42 40 c-88 83
-223 286 -200 300 23 14 4 53 -114 237 -69 109 -185 358 -166 358 5 0 53 -28
107 -63 152 -98 241 -144 326 -167 62 -17 81 -19 93 -10 8 7 14 18 14 24 0 6
-30 52 -66 101 -178 241 -313 540 -384 847 l-22 98 -177 172 c-149 147 -388
346 -437 365 -10 4 -34 53 -34 69 0 12 28 -6 140 -90z m-1657 -117 c106 -21
136 -34 117 -53 -20 -20 -8 -24 93 -28 83 -3 111 -8 150 -28 27 -13 50 -27 53
-31 6 -11 -94 0 -221 23 -152 27 -155 28 -155 48 0 11 -10 20 -27 25 -26 6
-272 24 -340 25 -18 0 -33 4 -33 8 0 37 208 43 363 11z m1497 -170 c179 -264
273 -481 330 -766 31 -156 26 -174 -20 -75 -39 82 -51 93 -84 69 -14 -11 -19
-37 -26 -152 -12 -179 -17 -216 -45 -350 -24 -109 -56 -212 -91 -290 l-18 -40
-7 70 c-4 39 -13 169 -19 290 -7 121 -15 236 -19 255 -10 50 -34 50 -66 0 -15
-23 -29 -39 -32 -36 -5 5 -42 422 -42 481 0 30 0 30 57 -30 31 -34 75 -94 97
-134 43 -79 56 -91 82 -70 14 12 15 33 10 164 -11 249 -66 435 -193 646 -20
34 -34 70 -34 89 0 33 0 33 20 15 12 -11 57 -71 100 -136z m-2013 115 c6 -17
-5 -42 -41 -92 -55 -74 -93 -258 -66 -321 17 -42 34 -45 100 -15 88 39 95 35
94 -61 -2 -142 -64 -330 -109 -330 -15 0 -24 12 -35 47 -19 60 -44 87 -68 72
-9 -6 -32 -39 -51 -75 -54 -104 -136 -240 -180 -298 -66 -88 -52 -125 40 -102
72 19 89 10 89 -47 0 -59 -23 -156 -56 -239 -28 -68 -26 -106 3 -118 14 -5 28
6 58 42 54 66 172 183 183 183 17 0 32 -60 32 -124 0 -98 28 -108 125 -50 88
53 142 100 191 167 57 78 59 109 5 136 -46 24 -54 41 -41 90 33 124 208 283
359 327 58 17 101 9 101 -19 0 -48 -38 -126 -100 -209 -69 -90 -82 -122 -58
-146 18 -18 40 -15 100 13 62 29 90 31 123 9 34 -22 48 -73 40 -143 l-7 -58
-76 -34 c-233 -101 -525 -273 -623 -366 -106 -101 -157 -118 -269 -88 -30 8
-56 12 -59 10 -8 -8 33 -46 77 -72 44 -26 132 -35 180 -19 20 7 22 4 22 -27 0
-34 13 -48 37 -40 6 3 26 40 44 84 31 77 34 82 103 128 90 60 235 146 284 167
51 22 230 30 345 14 110 -14 192 -32 309 -67 48 -14 94 -23 102 -20 23 9 20
34 -6 51 -57 37 -356 102 -495 108 -35 2 -63 6 -63 10 0 7 118 57 248 104 77
28 107 34 175 34 107 0 269 -24 348 -50 68 -23 89 -21 89 9 0 24 -17 34 -124
71 -93 32 -200 56 -300 66 l-68 7 6 44 c9 68 44 139 88 179 44 39 73 42 151
12 62 -24 71 -39 77 -130 5 -77 7 -83 28 -86 13 -2 34 4 48 12 50 34 219 44
264 16 10 -6 9 -52 -5 -231 -9 -123 -21 -289 -26 -367 -12 -185 -30 -266 -85
-377 -86 -177 -229 -355 -339 -425 -94 -60 -83 -118 20 -105 89 11 208 46 278
81 37 18 67 32 67 30 0 -11 -41 -120 -60 -156 -39 -78 -117 -175 -205 -255
-120 -109 -114 -141 17 -91 115 43 284 135 432 236 98 66 134 96 263 216 l111
104 6 -48 c3 -26 7 -72 8 -101 3 -54 3 -55 -40 -85 -42 -30 -48 -31 -138 -30
l-95 2 -52 -48 c-63 -58 -127 -172 -110 -199 18 -29 37 -17 75 49 21 36 53 80
73 98 33 30 39 32 108 32 89 0 152 20 205 65 36 32 40 39 44 94 3 45 12 73 36
111 18 28 32 58 32 66 0 25 -30 28 -54 5 -12 -11 -25 -21 -28 -21 -3 0 -9 20
-12 44 -6 40 -2 51 50 141 31 55 69 132 84 173 14 40 31 73 36 74 5 0 20 -31
34 -68 22 -61 24 -85 24 -199 -1 -156 -24 -246 -109 -423 -60 -124 -112 -188
-243 -293 -61 -49 -139 -99 -155 -99 -7 0 9 85 21 107 15 28 15 76 0 91 -20
20 -67 14 -93 -13 -30 -29 -31 -45 -5 -78 20 -26 25 -61 14 -115 -6 -28 -10
-30 -85 -47 l-79 -17 -33 -71 c-32 -68 -85 -142 -170 -236 -21 -24 -40 -41
-42 -39 -2 1 8 30 21 62 13 33 22 61 20 63 -2 2 -30 -41 -62 -96 -32 -55 -59
-99 -61 -97 -1 1 2 18 7 37 l9 34 -20 -25 c-12 -14 -36 -55 -55 -92 -35 -70
-83 -115 -284 -270 -91 -70 -366 -255 -490 -330 -248 -150 -494 -238 -666
-238 -107 0 -172 21 -237 75 -28 25 -99 69 -157 99 -220 113 -403 249 -580
433 -117 120 -242 291 -260 354 -6 19 -10 63 -10 99 0 67 -10 97 -28 86 -16
-10 -22 20 -22 105 0 46 -4 79 -10 79 -6 0 -10 -27 -10 -62 0 -79 -12 -67 -25
25 -6 41 -14 70 -20 67 -5 -3 -8 -15 -7 -27 2 -13 -1 -23 -6 -23 -11 0 -59
249 -67 350 -12 138 -106 412 -225 650 -26 52 -64 145 -84 205 -36 110 -86
312 -86 351 0 15 20 32 83 66 131 74 172 85 257 70 75 -13 296 -84 312 -100 6
-6 -6 -12 -34 -17 -118 -18 -162 -30 -203 -56 -52 -33 -62 -65 -17 -55 15 3
108 13 208 22 l181 17 91 -37 c96 -39 242 -61 256 -38 10 16 -134 107 -289
182 -253 122 -427 177 -524 166 -73 -9 -175 -45 -258 -92 -37 -22 -72 -41 -77
-43 -15 -6 0 387 19 469 48 216 161 482 279 660 103 154 282 310 357 310 15 0
52 -12 83 -26 67 -30 91 -26 108 22 15 41 28 42 130 14 120 -33 125 -32 245
57 74 54 78 55 85 8 6 -35 42 -28 116 20 39 25 92 55 119 66 129 58 326 88
340 53z m1110 -226 c70 -51 171 -135 225 -187 l99 -96 -76 -58 c-196 -151
-305 -164 -361 -44 -13 29 -24 62 -24 75 0 13 -22 47 -55 82 -30 33 -56 70
-57 82 -2 44 4 83 19 113 23 45 83 125 94 125 5 0 66 -41 136 -92z m-2907 -75
c-111 -119 -188 -256 -248 -444 -34 -107 -68 -263 -77 -359 -17 -175 -88 -310
-201 -385 -45 -30 -65 -37 -100 -37 -60 2 -143 37 -242 103 -78 52 -102 76
-64 65 87 -25 258 -9 340 33 61 31 140 125 185 220 56 120 77 230 87 461 8
194 24 289 56 337 24 38 63 50 154 51 48 0 103 7 125 15 22 8 42 13 44 11 2
-2 -24 -34 -59 -71z m3308 -298 c53 -36 129 -135 118 -154 -3 -5 30 -62 75
-126 73 -104 80 -117 65 -128 -16 -12 -15 -16 9 -60 22 -39 65 -157 65 -177 0
-9 -80 120 -105 170 -26 52 -32 89 -15 106 6 6 -5 27 -28 59 -58 76 -104 156
-98 170 5 13 -105 126 -141 144 -25 13 -31 31 -10 31 7 0 36 -16 65 -35z
m1229 -1139 c28 -9 56 -22 61 -29 6 -7 26 -51 45 -98 78 -194 226 -360 415
-466 l67 -38 -40 -7 c-67 -12 -154 -9 -183 6 -65 34 -213 210 -298 356 -51 88
-146 303 -131 297 7 -2 35 -12 64 -21z m-4787 -376 c-16 -74 -71 -192 -119
-255 -34 -45 -46 -53 -83 -59 -24 -4 -59 -9 -78 -12 l-35 -6 66 68 c104 108
164 197 229 344 l25 55 3 -40 c2 -22 -2 -65 -8 -95z m4233 -1369 c4 -1 7 -9 7
-19 0 -17 -12 -20 -107 -25 -186 -12 -293 -9 -293 7 0 8 6 18 13 23 11 7 305
21 352 16 11 -1 23 -2 28 -2z m-3613 -66 c0 -12 -15 -15 -79 -15 -74 0 -100 7
-84 24 3 3 42 6 85 6 63 0 78 -3 78 -15z m3618 -88 l3 -47 -55 0 c-55 0 -56 0
-56 29 0 16 -3 36 -6 45 -4 11 4 16 38 19 72 6 73 6 76 -46z m-376 37 c4 -3
-1 -19 -10 -35 -22 -39 -67 -38 -67 1 0 24 3 26 66 39 3 0 8 -2 11 -5z m186
-19 c37 -82 -16 -160 -92 -135 -55 18 -73 86 -35 134 17 22 29 26 68 26 41 0
49 -3 59 -25z m-3431 -17 c-3 -7 -13 -32 -22 -55 l-17 -43 -58 0 -58 0 -4 51
c-1 28 -1 53 1 55 2 2 40 4 84 4 59 0 78 -3 74 -12z m118 -127 l57 -95 -24
-18 c-52 -40 -92 -13 -108 71 -9 48 -8 71 7 124 6 23 0 30 68 -82z m3133 -1
l22 -29 -47 -36 -48 -37 -3 63 c-3 64 5 81 37 72 9 -3 26 -18 39 -33z m360 11
c9 -5 12 -31 10 -88 l-3 -81 -68 79 c-38 43 -66 83 -62 89 7 12 104 13 123 1z
m-3641 -57 c4 -11 -15 -37 -61 -82 l-66 -67 0 77 c0 85 -2 84 83 87 26 1 39
-4 44 -15z m3338 -86 c-13 -35 -48 -126 -79 -203 l-55 -140 -1 145 0 146 73
56 c39 31 75 57 79 58 4 0 -4 -28 -17 -62z m234 -32 l81 -94 0 -103 c0 -56 -2
-100 -5 -97 -7 7 -165 371 -165 380 0 15 7 8 89 -86z m-3521 -4 c3 -21 -140
-415 -158 -435 -4 -5 -10 65 -12 155 l-6 163 72 73 c72 74 98 85 104 44z
m3000 -62 c19 -39 22 -59 22 -176 l0 -132 -196 -66 c-193 -64 -195 -65 -179
-38 10 15 26 36 36 48 40 43 16 34 -38 -16 -32 -29 -74 -63 -93 -76 -39 -26
-402 -133 -622 -183 -127 -29 -373 -71 -408 -70 -8 0 50 22 130 48 80 27 183
66 230 88 104 48 345 197 569 350 277 191 430 275 491 271 30 -3 38 -9 58 -48z
m468 -95 c31 -72 63 -144 70 -162 l13 -31 -42 5 c-23 2 -57 6 -74 9 l-33 5 0
156 c0 86 2 154 4 152 3 -2 30 -63 62 -134z m-128 -125 l-3 -55 -59 -8 c-32
-5 -61 -6 -64 -3 -3 3 16 61 43 128 75 193 67 185 77 83 5 -49 7 -115 6 -145z
m-3140 175 c30 -43 32 -51 32 -132 0 -47 -3 -84 -6 -81 -10 10 -73 258 -65
258 4 0 22 -20 39 -45z m-150 -271 l-3 -97 -75 -18 c-95 -23 -91 -23 -80 4 5
12 38 96 73 187 35 91 68 174 73 185 11 23 16 -106 12 -261z m116 25 c20 -75
36 -141 36 -146 0 -6 -19 -4 -45 6 l-45 16 0 139 c0 87 4 136 9 131 5 -6 26
-71 45 -146z m3401 -67 l30 -8 3 -196 2 -196 -67 -6 c-38 -3 -134 -8 -215 -12
l-148 -6 0 205 0 206 38 10 c20 5 46 12 57 15 29 8 265 -1 300 -12z m-474 -32
c16 -9 19 -22 19 -73 0 -60 -2 -65 -37 -99 -71 -67 -343 -194 -555 -258 -57
-18 -142 -45 -189 -61 -100 -33 -360 -90 -566 -123 -82 -13 -153 -30 -168 -40
-39 -25 -51 -66 -65 -206 -30 -306 -38 -371 -51 -386 -11 -13 -33 -15 -153
-11 -78 2 -159 10 -180 16 l-39 13 7 242 6 243 -43 59 c-43 59 -83 95 -164
146 -50 32 -50 35 -32 197 l12 99 30 -34 c16 -19 53 -49 82 -67 30 -18 87 -54
128 -82 40 -27 81 -54 91 -60 14 -9 17 -50 25 -357 5 -191 12 -352 16 -358 12
-19 51 -11 62 13 7 14 9 136 5 349 l-5 326 59 12 c107 21 206 48 404 110 107
34 276 84 375 111 239 66 489 144 715 223 102 36 186 65 188 65 2 1 12 -4 23
-9z m-2909 -126 l43 -30 3 -99 c1 -54 -1 -102 -6 -107 -13 -13 -214 -22 -304
-14 l-76 7 -4 97 c-6 115 -4 119 92 157 93 36 191 32 252 -11z m881 -87 c58
-47 142 -87 200 -95 62 -8 54 -23 -10 -16 -116 12 -217 50 -262 98 -20 21 -22
28 -11 41 18 22 25 20 83 -28z m345 -114 c-16 -2 -40 -2 -55 0 -16 2 -3 4 27
4 30 0 43 -2 28 -4z m-1379 -115 c76 0 153 3 170 7 31 7 31 6 31 -35 0 -39 -2
-42 -22 -37 -13 4 -86 7 -163 8 -185 2 -205 5 -205 33 0 29 9 38 32 30 11 -3
81 -6 157 -6z m3773 -425 c178 -170 333 -317 346 -329 l22 -20 -127 -365 c-69
-200 -127 -366 -129 -368 -2 -2 -52 3 -111 12 -60 8 -351 50 -648 93 -328 47
-546 82 -554 90 -10 9 -15 36 -15 82 -1 68 1 73 91 253 105 211 239 439 403
687 l114 172 143 0 142 0 323 -307z m-3013 50 c1 -61 -2 -76 -22 -100 -29 -34
-146 -218 -210 -328 -56 -97 -207 -410 -268 -553 -33 -79 -50 -107 -70 -118
-46 -23 -168 -53 -284 -68 -134 -18 -446 -49 -450 -44 -2 2 9 53 25 113 56
224 154 426 268 554 61 70 149 130 397 273 207 120 581 354 592 370 12 20 22
-23 22 -99z m105 -140 c12 -154 13 -159 73 -224 31 -33 77 -72 102 -87 44 -26
53 -27 186 -28 611 -5 1072 80 1363 251 32 18 93 59 136 90 43 31 80 54 82 52
9 -9 -116 -186 -148 -211 -73 -55 -284 -138 -474 -185 -225 -57 -588 -91 -961
-91 -151 0 -262 -4 -290 -11 l-45 -12 6 -61 c3 -34 11 -101 16 -151 5 -49 10
-156 10 -237 l0 -147 -40 -102 c-22 -57 -40 -107 -40 -112 0 -19 62 5 405 153
624 271 697 302 701 297 3 -2 -73 -46 -168 -97 -197 -106 -347 -197 -463 -283
-44 -33 -89 -64 -100 -69 -11 -5 -33 -28 -48 -50 -27 -38 -27 -40 -7 -45 11
-3 20 -9 20 -13 0 -4 -33 -27 -72 -51 -129 -76 -366 -239 -387 -265 -24 -31
-39 -81 -95 -322 -101 -430 -202 -984 -217 -1187 -5 -77 -11 -147 -13 -155 -1
-8 -22 23 -45 70 -51 102 -52 80 19 480 102 575 219 1084 326 1415 25 77 47
146 49 153 3 6 1 12 -4 12 -5 0 -25 -51 -46 -112 -21 -62 -44 -124 -51 -138
-12 -24 -13 -23 -47 50 -88 188 -117 285 -132 434 -24 232 -17 416 14 416 4 0
28 -55 55 -122 26 -68 90 -204 141 -303 l94 -179 21 48 c30 70 39 121 40 207
0 106 -18 330 -35 419 -17 94 -8 112 70 136 30 10 55 20 55 24 0 3 -21 26 -46
50 -70 69 -84 98 -91 188 -5 76 -4 82 27 140 18 34 36 60 40 57 4 -3 11 -44
14 -92z m3554 -161 l90 -37 -28 -35 c-16 -19 -30 -33 -32 -30 -2 3 -32 36 -68
73 -35 37 -62 67 -58 67 3 0 46 -17 96 -38z m-87 -170 l56 -53 -81 -209 c-91
-236 -70 -212 -209 -226 l-67 -7 56 159 c31 87 77 218 102 291 54 150 38 145
143 45z m-2985 -351 c53 -32 82 -129 60 -199 -8 -24 -7 -24 56 -21 62 3 88 -3
88 -21 0 -21 -52 -40 -145 -54 -55 -7 -124 -23 -153 -35 -101 -40 -193 -21
-211 44 -19 68 16 149 96 227 77 73 151 94 209 59z m3069 -300 c187 -33 401
-72 475 -85 269 -49 430 -77 685 -122 143 -25 268 -47 278 -50 15 -5 9 -15
-35 -63 -185 -200 -636 -869 -938 -1391 -62 -107 -113 -196 -114 -197 -2 -2
-736 -20 -1089 -26 l-189 -4 7 46 c11 80 92 469 125 602 11 46 34 106 50 132
30 49 38 73 20 62 -21 -13 -9 15 25 59 19 26 35 48 35 51 0 11 -24 4 -42 -12
-10 -9 -18 -12 -18 -6 0 8 206 721 291 1007 l21 68 36 -5 c20 -3 190 -33 377
-66z m-4161 -183 c3 -18 17 -56 30 -85 28 -59 45 -163 27 -163 -6 0 -11 4 -11
10 0 5 -13 23 -29 39 -17 17 -41 50 -55 74 l-25 43 21 57 c11 31 24 57 28 57
4 0 11 -15 14 -32z m-924 -13 c0 -3 -33 -101 -74 -218 -40 -117 -97 -291 -126
-387 -28 -96 -69 -231 -91 -300 -21 -69 -59 -201 -83 -293 -25 -93 -47 -172
-51 -175 -3 -4 -14 4 -24 17 -17 23 -18 23 -30 -46 -6 -37 -12 -111 -12 -163
0 -52 -5 -121 -11 -153 l-11 -57 -204 0 -204 0 6 73 c3 39 10 140 16 222 22
314 71 761 109 986 20 120 37 173 116 360 l46 109 41 1 c23 1 130 7 237 14
224 14 350 17 350 10z m6819 -119 c56 -14 69 -31 189 -268 207 -406 360 -877
496 -1518 44 -209 50 -240 42 -240 -12 0 -340 40 -372 45 -30 5 -31 8 -54 108
-21 88 -26 148 -29 312 -1 17 -5 39 -10 50 -11 25 -31 151 -31 199 0 20 -4 36
-10 36 -5 0 -10 -11 -10 -24 0 -27 -18 -45 -29 -28 -4 6 -22 78 -40 159 -79
353 -262 1160 -267 1177 -5 16 -2 17 36 11 24 -4 63 -12 89 -19z m-4088 -518
l-17 -83 -217 -3 -217 -2 0 23 c0 13 3 52 6 86 l7 61 227 0 227 0 -16 -82z
m-31 -152 c0 -6 -7 -62 -17 -123 l-16 -113 -199 0 -199 0 3 123 3 122 200 5
c212 5 225 4 225 -14z m-3629 -103 c-7 -54 -15 -114 -18 -133 l-6 -35 -7 30
c-15 59 -10 134 11 190 12 31 23 54 26 51 3 -3 0 -49 -6 -103z m1137 13 c79
-42 243 -279 388 -561 36 -71 80 -154 97 -184 17 -30 25 -51 19 -47 -6 3 -49
71 -97 151 l-86 145 -55 -41 -55 -40 -70 52 c-88 65 -118 68 -166 16 -36 -40
-38 -50 -34 -182 l3 -80 -94 -52 c-81 -46 -95 -51 -113 -40 -29 19 -223 410
-237 480 -12 54 -11 61 12 103 13 25 54 74 92 109 161 148 313 214 396 171z
m1364 -403 c56 -52 74 -133 43 -193 -15 -28 -14 -29 13 -32 39 -4 34 -31 -8
-44 -58 -19 -225 -34 -263 -23 -112 31 -117 114 -14 227 71 77 116 105 161 99
23 -3 50 -16 68 -34z m-1797 -290 c47 -97 84 -181 82 -186 -7 -22 -61 72 -117
203 -58 136 -66 160 -55 160 3 0 43 -80 90 -177z m2855 62 c6 -143 4 -157 -23
-153 -17 2 -23 11 -25 40 -2 20 -10 42 -18 48 -8 7 -14 23 -14 35 0 13 -7 25
-15 29 -8 3 -15 14 -15 25 0 11 -9 25 -20 31 -11 6 -20 20 -20 30 0 16 7 20
30 20 17 0 30 -4 30 -10 0 -5 5 -10 10 -10 6 0 10 7 10 16 0 11 8 14 33 12
l32 -3 5 -110z m-3615 23 c-11 -68 -35 -559 -47 -970 l-12 -428 -62 0 c-62 0
-63 0 -73 32 -17 53 -48 215 -61 320 -11 88 -10 106 9 205 54 269 193 781 232
856 15 26 20 20 14 -15z m1464 -150 c62 -23 115 -48 118 -55 4 -11 -30 -183
-44 -218 -2 -6 40 -21 98 -35 56 -14 108 -31 116 -38 25 -25 26 -62 3 -143
-14 -47 -19 -83 -14 -88 5 -5 49 -20 99 -35 49 -14 96 -32 103 -40 12 -12 11
-32 -7 -139 -11 -69 -21 -128 -21 -131 0 -22 -236 27 -287 60 -29 18 -29 40 2
139 14 44 25 85 25 91 0 6 -46 20 -102 32 -106 22 -145 46 -135 81 27 92 47
174 44 177 -4 5 -161 54 -195 61 -44 10 -49 44 -24 163 31 152 35 160 74 160
18 0 84 -19 147 -42z m2561 -103 c575 -41 692 -52 918 -82 101 -13 122 -19
117 -31 -18 -48 -36 -330 -42 -664 l-6 -378 -644 0 c-353 0 -643 3 -643 8 0 4
-9 122 -20 262 -21 274 -38 811 -26 872 l7 37 62 -4 c34 -3 159 -12 277 -20z
m-3054 -200 c33 -55 106 -173 162 -262 56 -90 99 -163 97 -163 -2 0 -25 29
-51 65 -25 36 -48 64 -51 61 -2 -2 -44 -150 -92 -328 l-88 -323 -29 -4 c-16
-1 -161 0 -321 4 -270 7 -293 9 -293 25 0 38 102 523 139 660 69 261 104 369
119 372 8 2 89 1 181 -2 l166 -5 61 -100z m5502 -17 c37 -173 166 -757 183
-832 11 -48 18 -90 16 -92 -2 -2 -159 -3 -349 -2 l-346 3 149 310 c82 171 188
392 236 492 48 100 90 180 93 178 4 -2 12 -28 18 -57z m-3150 -19 c-9 -5 -86
-29 -170 -53 -211 -61 -610 -211 -807 -303 -156 -73 -164 -76 -177 -58 -8 10
-14 22 -14 27 0 11 213 117 368 182 233 98 425 153 646 187 71 11 132 21 134
24 3 3 12 5 21 5 14 -1 14 -2 -1 -11z m-3705 -311 c35 -83 46 -128 30 -128
-10 0 -73 163 -80 205 -8 47 10 20 50 -77z m8542 -327 c30 -134 54 -245 52
-247 -2 -2 -176 -6 -388 -10 -339 -6 -382 -5 -369 8 8 9 154 131 325 273 265
221 310 255 317 239 4 -11 33 -129 63 -263z m-5965 76 c0 -21 -110 -148 -164
-188 -95 -72 -349 -190 -367 -172 -6 6 37 29 101 57 151 66 279 153 354 243
62 72 76 84 76 60z m-2500 -204 l27 -138 -75 -3 c-41 -2 -76 -1 -78 1 -2 1 17
67 42 146 25 79 48 140 51 137 3 -3 18 -67 33 -143z m2640 -60 c0 -14 -105
-143 -108 -133 -2 6 4 21 15 33 10 12 31 41 46 65 24 37 47 55 47 35z"/>
<path d="M2321 8754 c-78 -118 -109 -214 -71 -214 6 0 25 20 43 46 17 25 33
40 35 35 6 -17 37 -13 64 8 13 11 41 21 61 23 l37 3 -34 27 c-31 25 -36 26
-50 13 -26 -27 -26 -16 4 51 17 36 30 70 30 75 0 5 -15 9 -34 9 -32 0 -39 -6
-85 -76z"/>
<path d="M4437 7899 c-127 -17 -180 -50 -302 -190 -48 -55 -105 -112 -127
-125 -49 -31 -43 -42 12 -20 22 9 40 12 40 8 -1 -4 -7 -36 -15 -72 -7 -36 -12
-67 -9 -69 7 -8 46 33 86 92 49 72 117 139 192 188 63 41 97 53 186 64 l55 6
-46 -45 c-169 -168 -170 -459 -2 -656 72 -84 242 -137 358 -113 105 22 225
125 282 241 24 50 28 71 31 162 2 80 -2 121 -16 172 l-19 67 26 -18 c30 -22
103 -99 142 -151 15 -19 31 -31 35 -27 13 12 -53 131 -104 188 -24 27 -43 52
-40 54 2 2 37 -4 78 -15 41 -11 76 -17 79 -15 7 7 2 9 -84 39 -44 16 -109 47
-145 71 -229 150 -431 197 -693 164z m548 -213 c39 -18 84 -46 100 -62 l30
-29 -28 -3 c-23 -3 -26 -7 -21 -28 7 -27 2 -29 -29 -12 -51 27 -98 73 -93 90
3 14 -6 24 -35 39 -39 19 -44 39 -11 39 10 0 49 -15 87 -34z m-154 -195 c63
-64 20 -185 -66 -185 -48 0 -95 48 -95 97 0 31 31 95 54 109 27 18 78 8 107
-21z m279 -182 c-14 -79 -44 -131 -109 -193 -115 -107 -249 -122 -385 -42 -76
44 -144 151 -149 233 -2 36 0 38 28 38 26 0 34 -7 57 -50 17 -31 34 -50 45
-50 10 0 31 -12 47 -27 35 -34 62 -36 70 -5 5 22 6 21 35 -10 17 -18 33 -33
36 -33 4 0 20 14 36 31 27 29 29 29 52 14 23 -15 26 -14 72 24 26 22 57 56 69
77 16 29 31 41 61 50 22 6 41 10 43 9 2 -2 -2 -32 -8 -66z"/>
<path d="M2460 7704 c-108 -32 -357 -174 -304 -174 3 0 14 5 25 10 23 13 24 7
3 -53 -16 -47 -14 -77 6 -77 6 0 45 32 87 72 89 82 158 118 240 124 32 2 52 2
46 -2 -22 -10 -81 -117 -98 -177 -25 -86 -22 -238 5 -308 42 -105 118 -183
209 -215 54 -18 167 -28 226 -20 54 9 124 65 155 126 40 78 47 216 19 349 -5
24 -7 46 -5 49 3 3 24 -12 47 -32 22 -21 43 -35 46 -32 3 3 -15 29 -41 59 -25
30 -46 57 -46 61 0 3 11 6 24 6 33 0 42 17 15 25 -12 4 -60 35 -106 70 -136
100 -223 142 -323 154 -115 15 -132 14 -230 -15z m465 -159 c53 -31 89 -70 82
-89 -4 -10 -13 -13 -22 -10 -9 4 -27 1 -40 -6 -21 -11 -26 -10 -49 16 -14 16
-26 37 -26 46 0 18 -45 58 -66 58 -7 0 -16 5 -20 11 -12 20 97 0 141 -26z
m-147 -181 c29 -8 62 -71 62 -118 0 -42 -42 -96 -75 -96 -33 0 -73 36 -85 78
-15 49 5 111 40 129 29 15 28 15 58 7z m254 -179 c8 -9 -11 -115 -27 -145 -27
-52 -73 -88 -119 -95 -56 -9 -177 10 -225 35 -46 23 -97 80 -122 134 -17 38
-17 42 -2 54 24 18 27 16 48 -30 15 -32 26 -43 43 -43 15 0 30 -12 44 -33 21
-33 32 -39 43 -22 3 6 19 10 34 10 15 0 32 5 38 11 9 9 20 9 44 -1 30 -13 33
-12 60 18 16 18 35 32 43 32 8 0 20 15 26 34 7 23 19 36 33 39 12 2 25 5 28 6
3 0 8 -1 11 -4z"/>
<path d="M3120 7694 c0 -9 11 -32 26 -51 52 -68 100 -233 114 -394 10 -115 17
-136 44 -126 20 8 20 62 2 207 -14 111 -36 166 -123 309 -40 66 -63 86 -63 55z"/>
<path d="M4172 7448 c-7 -7 -12 -38 -12 -69 0 -114 68 -263 146 -321 39 -29
60 -22 31 10 -23 27 -83 152 -101 211 -9 30 -16 78 -16 106 0 45 -12 75 -30
75 -3 0 -11 -5 -18 -12z"/>
<path d="M5212 7373 c-5 -10 -12 -41 -16 -69 -7 -56 -43 -170 -70 -223 -25
-47 -14 -48 28 -5 89 92 149 314 85 314 -10 0 -22 -8 -27 -17z"/>
<path d="M2296 7318 c-3 -13 -6 -56 -6 -97 0 -63 4 -81 30 -130 38 -69 86
-129 96 -118 4 4 -8 38 -28 75 -48 88 -69 173 -61 240 5 43 3 52 -9 52 -9 0
-18 -10 -22 -22z"/>
<path d="M3116 7118 c-7 -73 -34 -141 -78 -198 -32 -41 0 -36 44 6 54 53 55
56 63 167 6 82 5 97 -7 97 -11 0 -17 -18 -22 -72z"/>
<path d="M4452 6908 c8 -26 94 -58 190 -70 110 -14 257 0 312 29 l31 17 -50 8
c-27 5 -90 6 -140 3 -59 -4 -121 0 -180 9 -113 19 -168 20 -163 4z"/>
<path d="M3307 6893 c-2 -4 -8 -87 -12 -183 -6 -168 -6 -174 11 -151 20 28 44
120 44 174 0 38 8 45 28 25 9 -9 16 -7 31 6 15 13 20 14 24 4 3 -10 7 -10 17
-1 7 6 19 9 26 6 8 -3 17 2 20 11 3 9 15 16 25 16 10 0 19 5 19 10 0 6 -11 10
-24 10 -13 0 -26 5 -28 11 -2 7 -12 7 -31 0 -24 -9 -27 -8 -27 11 0 19 -1 20
-17 5 -27 -23 -71 -11 -75 21 -3 25 -22 41 -31 25z"/>
<path d="M2450 6880 c0 -32 207 -140 269 -140 33 0 161 47 161 59 0 16 -13 18
-50 10 -64 -14 -235 18 -342 65 -21 9 -38 12 -38 6z"/>
<path d="M3295 6423 c11 -45 42 -80 105 -118 61 -37 80 -38 80 -5 0 12 -17 29
-47 46 -27 15 -67 45 -90 66 -50 45 -57 47 -48 11z"/>
<path d="M3685 6369 c-31 -38 -29 -64 5 -64 32 0 76 61 59 81 -18 22 -35 17
-64 -17z"/>
<path d="M3750 5908 c-87 -11 -339 -91 -375 -120 -17 -13 -25 -29 -25 -49 0
-25 4 -29 29 -29 17 0 42 11 59 25 78 65 329 135 489 135 98 0 255 -21 310
-43 28 -11 58 -17 67 -14 22 9 20 54 -2 66 -65 35 -375 51 -552 29z"/>
<path d="M3820 5690 c-102 -13 -173 -50 -155 -80 12 -19 71 -40 115 -40 101 0
202 87 141 120 -11 5 -26 9 -33 9 -7 -1 -38 -5 -68 -9z"/>
</g>
</svg>
